<svg width="30" height="30" viewBox="0 0 30 30" fill="none" xmlns="http://www.w3.org/2000/svg">
<g clip-path="url(#clip0_5_84)">
<path d="M0.9375 15C0.9375 12.2187 1.76225 9.49987 3.30746 7.1873C4.85267 4.87473 7.04893 3.07231 9.61851 2.00795C12.1881 0.943593 15.0156 0.665109 17.7435 1.20771C20.4713 1.75032 22.977 3.08964 24.9437 5.05632C26.9104 7.02299 28.2497 9.52869 28.7923 12.2565C29.3349 14.9844 29.0564 17.8119 27.9921 20.3815C26.9277 22.9511 25.1253 25.1473 22.8127 26.6925C20.5001 28.2378 17.7813 29.0625 15 29.0625C11.2704 29.0625 7.69354 27.5809 5.05631 24.9437C2.41908 22.3065 0.9375 18.7296 0.9375 15ZM27.1875 15C27.1875 12.5895 26.4727 10.2332 25.1335 8.22899C23.7944 6.22477 21.8909 4.66267 19.664 3.74022C17.437 2.81778 14.9865 2.57643 12.6223 3.04669C10.2582 3.51694 8.08659 4.67769 6.38214 6.38214C4.67768 8.08659 3.51694 10.2582 3.04668 12.6223C2.57642 14.9865 2.81778 17.437 3.74022 19.664C4.66266 21.8909 6.22476 23.7944 8.22899 25.1335C10.2332 26.4727 12.5895 27.1875 15 27.1875C18.2323 27.1875 21.3323 25.9035 23.6179 23.6179C25.9035 21.3323 27.1875 18.2323 27.1875 15Z" fill="white"/>
<path d="M5.775 18.2062C5.77605 17.958 5.87551 17.7203 6.05156 17.5453L14.3391 9.25781C14.4261 9.17064 14.5295 9.10149 14.6433 9.05431C14.7571 9.00713 14.8791 8.98285 15.0023 8.98285C15.1255 8.98285 15.2475 9.00713 15.3614 9.05431C15.4752 9.10149 15.5786 9.17064 15.6656 9.25781L23.9484 17.5406C24.1244 17.7165 24.2232 17.9551 24.2232 18.2039C24.2232 18.4527 24.1244 18.6913 23.9484 18.8672C23.7725 19.0431 23.5339 19.1419 23.2852 19.1419C23.0364 19.1419 22.7978 19.0431 22.6219 18.8672L15 11.25L7.37813 18.8672C7.24703 18.9975 7.08034 19.0862 6.899 19.122C6.71766 19.1579 6.52977 19.1393 6.35895 19.0687C6.18813 18.998 6.042 18.8785 5.93893 18.725C5.83587 18.5716 5.78047 18.3911 5.77969 18.2062H5.775Z" fill="white"/>
</g>
<defs>
<clipPath id="clip0_5_84">
<rect width="30" height="30" fill="white" transform="matrix(0 1 -1 0 30 0)"/>
</clipPath>
</defs>
</svg>
