<svg width="30" height="30" viewBox="0 0 30 30" fill="none" xmlns="http://www.w3.org/2000/svg">
<path d="M3.96938 24.375L2.40703 26.25H21.0305L19.4681 24.375H3.96938ZM5.15625 25.7812H4.21875V24.8438H5.15625V25.7812ZM7.03125 25.7812H6.09375V24.8438H7.03125V25.7812ZM15.4688 25.7812H7.96875V24.8438H15.4688V25.7812ZM17.3438 25.7812H16.4063V24.8438H17.3438V25.7812ZM19.2187 25.7812H18.2812V24.8438H19.2187V25.7812Z" fill="white"/>
<path d="M1.875 27.1875H21.5625V28.125H1.875V27.1875Z" fill="white"/>
<path d="M15.8625 2.02969L14.1094 2.47031L12.3469 4.45313L13.3734 5.61094L15.4219 3.7875L15.8625 2.02969Z" fill="white"/>
<path d="M13.5609 10.0031L14.2219 10.6687L16.2141 8.67656L15.5484 8.01562L13.5609 10.0031Z" fill="white"/>
<path d="M15.558 10.67L16.2205 10.0027L17.5515 11.3242L16.8889 11.9915L15.558 10.67Z" fill="white"/>
<path d="M21.5625 16.4062V15H1.875V16.4062C1.875 16.5306 1.92439 16.6498 2.01229 16.7377C2.1002 16.8256 2.21943 16.875 2.34375 16.875H21.0938C21.2181 16.875 21.3373 16.8256 21.4252 16.7377C21.5131 16.6498 21.5625 16.5306 21.5625 16.4062ZM19.6875 16.4062H18.75V15.4688H19.6875V16.4062Z" fill="white"/>
<path d="M7.5 20.625H15.9375V21.5625H7.5V20.625Z" fill="white"/>
<path d="M9.84375 17.8125H13.5938V19.6875H9.84375V17.8125Z" fill="white"/>
<path d="M9.87656 10.0031L7.88906 8.01562L7.22344 8.67656L9.21563 10.6687L9.87656 10.0031Z" fill="white"/>
<path d="M7.575 2.02969L8.01563 3.78281L13.5422 8.69531L14.0953 8.14687L14.2406 7.99688L9.32813 2.47031L7.575 2.02969Z" fill="white"/>
<path d="M28.125 14.5312H25.2469C25.1432 14.9327 24.9094 15.2885 24.582 15.543C24.2546 15.7974 23.8521 15.9362 23.4375 15.9375C23.107 15.9362 22.7831 15.8455 22.5 15.675V16.4062C22.4987 16.5662 22.4702 16.7247 22.4156 16.875H28.125V14.5312Z" fill="white"/>
<path d="M23.4375 15C23.9553 15 24.375 14.5803 24.375 14.0625C24.375 13.5447 23.9553 13.125 23.4375 13.125C22.9197 13.125 22.5 13.5447 22.5 14.0625C22.5 14.5803 22.9197 15 23.4375 15Z" fill="white"/>
<path d="M18.75 17.8125H28.125V21.5625H18.75V17.8125Z" fill="white"/>
<path d="M5.90489 11.3281L7.23581 10.0065L7.8984 10.6738L6.56748 11.9954L5.90489 11.3281Z" fill="white"/>
<path d="M28.125 5.625H22.5V12.45C22.7831 12.2795 23.107 12.1888 23.4375 12.1875C23.8521 12.1888 24.2546 12.3276 24.582 12.582C24.9094 12.8365 25.1432 13.1923 25.2469 13.5938H28.125V5.625ZM25.3125 9.375H24.375V7.5H25.3125V9.375ZM27.1875 9.375H26.25V7.5H27.1875V9.375Z" fill="white"/>
<path d="M7.13906 4.15312L7.04063 3.75H2.34375C2.21943 3.75 2.1002 3.79939 2.01229 3.88729C1.92439 3.9752 1.875 4.09443 1.875 4.21875V14.0625H21.5625V4.21875C21.5625 4.09443 21.5131 3.9752 21.4252 3.88729C21.3373 3.79939 21.2181 3.75 21.0938 3.75H16.3969L16.2984 4.15312C16.2744 4.2453 16.2239 4.32841 16.1531 4.39219L13.9969 6.30938L14.9062 7.33125L15.2156 7.02187C15.3041 6.93405 15.4238 6.88477 15.5484 6.88477C15.6731 6.88477 15.7927 6.93405 15.8813 7.02187L17.2078 8.34844C17.2951 8.43626 17.3441 8.55507 17.3441 8.67891C17.3441 8.80274 17.2951 8.92155 17.2078 9.00937L16.875 9.34219L18.5344 10.9969C18.62 11.0868 18.6685 11.2056 18.6703 11.3297C18.6694 11.454 18.6207 11.5731 18.5344 11.6625L17.2078 12.9891C17.119 13.0762 16.9995 13.125 16.875 13.125C16.7505 13.125 16.631 13.0762 16.5422 12.9891L14.8875 11.3297L14.5547 11.6625C14.511 11.7062 14.4591 11.7407 14.402 11.764C14.3448 11.7873 14.2836 11.7991 14.2219 11.7984C14.1608 11.799 14.1003 11.7873 14.0439 11.7639C13.9876 11.7406 13.9365 11.7061 13.8937 11.6625L12.5672 10.3359C12.4799 10.2481 12.4309 10.1293 12.4309 10.0055C12.4309 9.88163 12.4799 9.76283 12.5672 9.675L12.8766 9.36094L11.7188 8.33438L10.5609 9.36094L10.8703 9.675C10.9576 9.76283 11.0066 9.88163 11.0066 10.0055C11.0066 10.1293 10.9576 10.2481 10.8703 10.3359L9.54375 11.6625C9.50103 11.7061 9.44994 11.7406 9.39356 11.7639C9.33717 11.7873 9.27665 11.799 9.21562 11.7984C9.1539 11.7991 9.09267 11.7873 9.03552 11.764C8.97837 11.7407 8.92646 11.7062 8.88281 11.6625L8.55 11.3297L6.89531 12.9891C6.80645 13.0762 6.68696 13.125 6.5625 13.125C6.43804 13.125 6.31855 13.0762 6.22969 12.9891L4.90313 11.6625C4.81678 11.5731 4.76811 11.454 4.76719 11.3297C4.76901 11.2056 4.81755 11.0868 4.90313 10.9969L6.5625 9.34219L6.22969 9.00937C6.14238 8.92155 6.09338 8.80274 6.09338 8.67891C6.09338 8.55507 6.14238 8.43626 6.22969 8.34844L7.55625 7.02187C7.64475 6.93405 7.76438 6.88477 7.88906 6.88477C8.01374 6.88477 8.13337 6.93405 8.22188 7.02187L8.53125 7.33125L9.44062 6.30938L7.28438 4.3875C7.21378 4.32551 7.1632 4.24393 7.13906 4.15312Z" fill="white"/>
<path d="M11.0156 7.70625L10.1438 6.93281L9.19688 7.99687L9.89531 8.7L11.0156 7.70625Z" fill="white"/>
<path d="M28.125 27.1875C28.125 26.9389 28.0262 26.7004 27.8504 26.5246C27.6746 26.3488 27.4361 26.25 27.1875 26.25H25.3125C25.0639 26.25 24.8254 26.3488 24.6496 26.5246C24.4738 26.7004 24.375 26.9389 24.375 27.1875V28.125H28.125V27.1875Z" fill="white"/>
</svg>
