<svg width="25" height="25" viewBox="0 0 25 25" fill="none" xmlns="http://www.w3.org/2000/svg">
<g clip-path="url(#clip0_6_238)">
<path d="M24.5105 2.1086C24.1083 1.68397 23.5367 1.54246 23.0186 1.73922L1.03667 10.0889C0.437598 10.3164 0.0313474 10.9326 0.00170865 11.6586C-0.0278813 12.3846 0.326367 13.0421 0.904201 13.3335L5.31852 15.559L18.3151 7.24744C18.6326 7.04444 19.0309 7.1393 19.2526 7.4703C19.4744 7.80142 19.4528 8.26948 19.202 8.57173L11.0996 18.3339L9.43786 25.2518L13.4262 21.8106L18.1425 26.2577C18.4172 26.5168 18.7529 26.652 19.0953 26.652C19.2582 26.6519 19.4228 26.6213 19.5829 26.5587C20.0792 26.3648 20.4472 25.898 20.5672 25.3101L24.96 3.78882C25.0849 3.17705 24.9127 2.53322 24.5105 2.1086Z" fill="white"/>
</g>
<defs>
<clipPath id="clip0_6_238">
<rect width="25" height="25" fill="white"/>
</clipPath>
</defs>
</svg>
